<?xml version="1.0" standalone="no"?>
<!DOCTYPE svg PUBLIC "-//W3C//DTD SVG 20010904//EN"
 "http://www.w3.org/TR/2001/REC-SVG-20010904/DTD/svg10.dtd">
<svg version="1.0" xmlns="http://www.w3.org/2000/svg"
 width="700.000000pt" height="700.000000pt" viewBox="0 0 700.000000 700.000000"
 preserveAspectRatio="xMidYMid meet">
<metadata>
Created by potrace 1.11, written by Peter Selinger 2001-2013
</metadata>
<g transform="translate(0.000000,700.000000) scale(0.100000,-0.100000)"
fill="#000000" stroke="none">
<path d="M4953 5720 c-80 -21 -142 -48 -258 -112 -77 -42 -153 -76 -185 -83
-8 -2 -26 -8 -40 -13 -14 -5 -29 -10 -35 -11 -133 -22 -315 -92 -605 -234
-220 -107 -320 -145 -419 -156 -122 -14 -203 4 -331 72 -105 56 -181 98 -218
119 -75 43 -88 48 -120 48 -47 0 -82 -21 -167 -102 -106 -101 -167 -145 -265
-191 -47 -21 -114 -53 -150 -70 -91 -43 -164 -94 -246 -173 -114 -111 -141
-160 -163 -294 -6 -36 -13 -75 -15 -87 -4 -19 -14 -143 -20 -241 -3 -39 20
-247 28 -260 3 -5 8 -29 11 -54 5 -39 3 -49 -20 -76 -14 -17 -38 -37 -53 -45
-85 -44 -149 -82 -166 -98 -18 -16 -18 -22 -6 -59 19 -59 4 -83 -73 -120 -110
-52 -308 -254 -368 -375 -30 -61 -33 -98 -13 -150 18 -48 97 -89 334 -175 189
-68 279 -117 342 -185 36 -38 77 -106 83 -135 2 -12 7 -29 10 -39 3 -9 7 -53
9 -97 6 -117 -3 -131 -117 -178 -101 -42 -115 -48 -167 -67 -22 -8 -92 -70
-189 -167 l-154 -154 -65 7 c-71 8 -97 12 -154 24 -68 16 -109 7 -139 -29 -20
-23 -26 -41 -24 -64 9 -106 203 -346 325 -404 82 -39 178 -40 301 -3 52 16
116 32 144 36 102 15 174 76 214 182 30 82 48 96 113 95 128 -1 241 -38 288
-95 31 -37 53 -45 137 -52 45 -4 91 -17 133 -36 66 -31 126 -38 190 -24 40 9
178 77 250 123 149 96 327 256 349 314 12 31 7 36 -94 100 -100 64 -145 107
-145 137 0 50 57 122 115 146 38 17 202 51 280 60 166 18 260 60 392 176 60
53 82 65 135 74 17 3 35 8 39 11 5 3 52 7 106 9 150 7 246 -20 380 -105 62
-40 125 -41 193 -4 39 21 55 39 81 88 18 33 40 67 48 73 21 17 72 30 143 38
147 16 240 57 331 149 88 88 101 120 99 228 -2 80 0 88 24 117 33 40 50 48
213 109 73 28 148 61 167 74 50 34 78 98 78 179 0 61 -5 77 -54 174 -49 97
-54 112 -53 173 0 37 8 93 17 126 14 49 28 69 79 118 34 33 69 65 77 72 8 7
62 50 118 96 110 89 135 124 146 202 6 41 2 61 -32 145 -64 160 -69 183 -73
348 -1 74 6 104 44 180 17 33 32 69 33 80 3 32 -55 140 -107 199 -61 68 -143
122 -228 152 -68 23 -102 29 -231 39 -209 16 -272 31 -405 98 -93 48 -132 52
-232 27z m-1898 -816 c46 -22 45 -36 -11 -192 -68 -188 -122 -281 -211 -369
-50 -49 -128 -97 -143 -88 -5 3 -10 30 -10 60 0 65 -12 101 -37 109 -11 3 -45
8 -77 11 -32 3 -61 7 -65 9 -5 4 -6 31 -2 68 1 3 39 36 85 72 48 38 90 79 99
98 8 18 25 54 37 81 27 57 105 130 163 151 50 18 121 14 172 -10z"/>
</g>
</svg>
