<?xml version="1.0" encoding="utf-8"?>
<!-- Generator: Adobe Illustrator 21.0.0, SVG Export Plug-In . SVG Version: 6.00 Build 0)  -->
<svg version="1.1" id="Layer_1" xmlns="http://www.w3.org/2000/svg" xmlns:xlink="http://www.w3.org/1999/xlink" x="0px" y="0px"
	 viewBox="0 0 438 393.2" enable-background="new 0 0 438 393.2" xml:space="preserve">
<path d="M419.7,119.7c-2.5-6.4-6-12.3-6.6-19.5c-0.8-8.9-1.7-17.4,4-25.3c1.7-2.3,1.5-5.3,0.3-7.7c-7.3-15.4-20.2-23.3-36.6-24.2
	c-12.8-0.7-25.1-1.4-36.1-8.8c-2.2-1.5-4.9-2.2-7.8-1.9c-6.7,0.8-12.9,2.7-18.9,5.9c-7.6,4-14.9,8.9-23.3,10.7
	c-13.2,2.9-25.6,7.4-37.7,13.4c-10.8,5.4-21.2,11.7-33.2,14.8c-8.9,2.3-17.5,2.2-25.7-1.7c-8.7-4.2-17-9.2-25.4-13.8
	c-1.1-0.6-2.3-0.8-3.6-0.9c-4.7-0.5-7.6,2.4-10.4,5.3c-7.2,7.3-14.8,14-24.7,17.6c-9.3,3.4-17.8,8.2-25,15.2
	c-5.2,5-10.7,10.4-12,17.1c-3.3,17.1-5.6,34.5-0.6,51.9c1.1,3.8-0.7,6.8-4.2,8.7c-4.4,2.4-8.7,4.9-13.1,7.3
	c-2.1,1.2-1.9,2.7-0.8,4.4c1.9,2.7,0.9,6.5-2,7.9c-3,1.4-6.5,2.2-8.7,4.3c-8.9,8.5-18.6,16.3-23.2,28.3c-1.1,2.9,0.5,8.7,3,10.3
	c10.6,6.8,23,9.1,34.2,14.2c5.7,2.6,11,6.1,14.9,10.7c3.7,4.5,5.4,10.5,5.7,16.7c0.5,10.9,0.7,10.9-9.6,15c-1.2,0.5-2.5,0.9-3.7,1.5
	c-3.8,1.8-8.4,2.3-11.5,5.2c-6.7,6.4-13.1,13.1-19.5,19.7c-1.3,1.3-2.7,1.6-4.3,1.3c-5.4-0.8-10.9-1.3-16.2-2.7c-4-1-6.5,1-8.3,3.5
	c-1.7,2.4-1,5.4,0.4,8.3c4.1,8.5,10,15.3,17,21.6c6.3,5.6,13.3,6.7,21.1,5.5c5.4-0.9,10.2-3.7,15.8-4.2c8.5-0.7,14.1-5.3,16.9-13.4
	c1.9-5.7,2.4-8,10.8-7.1c7.8,0.9,15.4,1.4,20.2,8.9c0.6,1,1.7,1.1,2.8,1.3c5.7,0.9,11.7,0.3,16.8,3.8c2.1,1.5,4.5,2,7.1,1.8
	c1.9-0.2,3.8-0.4,5.7-0.6c0.5-0.1,1-0.2,1.4-0.4c16-7,30.2-16.5,41.4-30.1c1.6-1.9,1.8-3.9-0.8-5.4c-5.5-3.1-10.9-6.4-15.3-11
	c-0.5-0.5-1.1-0.8-1.1-1.8c0.3-4.9,5.2-10.9,9.9-11.9c5.9-1.2,11.7-3.1,17.6-3.5c12.1-0.8,22.4-5.1,31-13.7c1.8-1.8,3.7-3.6,6.3-4.3
	c14.6-3.7,28.7-3.8,41.3,5.7c7.8,5.9,18.7,0.1,20.8-7.5c0.9-3.3,3.6-5.4,7.2-5.9c9.7-1.3,19.8-2,27.4-9c5.8-5.3,12.2-10.6,10-20.1
	c-1.3-5.5,1.9-10.2,7.3-12.1c5.8-2.1,11.6-4.1,17.3-6.5c4-1.7,8.4-4.2,9.8-8.3c2.6-7.3,1.4-14.5-3.4-20.9c-4.1-5.4-4.2-11.9-3.1-18
	c0.8-4.6,2.7-9.3,6.9-12.6c6.8-5.3,13.4-10.9,20.1-16.5C420.2,132.6,421.8,124.9,419.7,119.7z M194.1,97.7
	c-3.2,8.3-5.5,17.1-9.8,24.8c-4.1,7.4-9.7,14.1-17.6,18.2c-1.8,0.9-2.5,0-2.7-1.5c-0.2-1.2,0-2.5,0-3.7c0.1-6.8-1.1-7.7-9.5-8.1
	c-1.4-0.1-3.4,0.8-3.8-1.2c-0.4-2.1-0.8-4.4,1.7-6c2.7-1.7,5-3.9,7.6-5.7c2.4-1.7,4.1-3.7,5-6.5c2.3-7,6.4-12.4,13.5-15.4
	c4.7-2,11.9-1.3,15.1,2.1C194.4,95.6,194.6,96.4,194.1,97.7z"/>
</svg>
