<svg width="15" height="7" viewBox="0 0 15 7" version="1.1" xmlns="http://www.w3.org/2000/svg" xmlns:xlink="http://www.w3.org/1999/xlink">
<title>Group</title>
<desc>Created using Figma</desc>
<g id="Canvas" transform="translate(-2703 153)">
<g id="Group">
<g id="Vector">
<use xlink:href="#path0_stroke" transform="matrix(-1.37928e-16 1 -1 -1.37928e-16 2716.31 -152)"/>
</g>
</g>
</g>
<defs>
<path id="path0_stroke" d="M 0.828283 -0.560309C 0.518833 -1.01776 -0.102861 -1.13773 -0.560309 -0.828283C -1.01776 -0.518833 -1.13773 0.102861 -0.828283 0.560309L 0.828283 -0.560309ZM 4 5.91304L 4.83571 6.46222L 5.20188 5.905L 4.82828 5.35273L 4 5.91304ZM -0.835705 11.4508C -1.13901 11.9124 -1.01073 12.5324 -0.549178 12.8357C -0.0876305 13.139 0.532403 13.0107 0.835705 12.5492L -0.835705 11.4508ZM -0.828283 0.560309L 3.17172 6.47335L 4.82828 5.35273L 0.828283 -0.560309L -0.828283 0.560309ZM 3.16429 5.36387L -0.835705 11.4508L 0.835705 12.5492L 4.83571 6.46222L 3.16429 5.36387Z"/>
</defs>
</svg>
