<svg width="20" height="19" viewBox="0 0 20 19" version="1.1" xmlns="http://www.w3.org/2000/svg" xmlns:xlink="http://www.w3.org/1999/xlink">
<title>Vector</title>
<desc>Created using Figma</desc>
<g id="Canvas" transform="translate(-2036 16)">
<g id="Vector">
<use xlink:href="#path0_fill" transform="translate(2036 -16)"/>
</g>
</g>
<defs>
<path id="path0_fill" d="M 20 3.33333L 20 6.2963L 0 6.2963L 0 3.33333C 0 2.51852 0.666667 1.85185 1.48148 1.85185L 3.7037 1.85185L 3.7037 0.740741C 3.7037 0.333333 4.03704 0 4.44444 0C 4.85185 0 5.18519 0.333333 5.18519 0.740741L 5.18519 1.85185L 7.40741 1.85185L 7.40741 0.740741C 7.40741 0.333333 7.74074 0 8.14815 0C 8.55556 0 8.88889 0.333333 8.88889 0.740741L 8.88889 1.85185L 11.1111 1.85185L 11.1111 0.740741C 11.1111 0.333333 11.4444 0 11.8519 0C 12.2593 0 12.5926 0.333333 12.5926 0.740741L 12.5926 1.85185L 14.8148 1.85185L 14.8148 0.740741C 14.8148 0.333333 15.1481 0 15.5556 0C 15.963 0 16.2963 0.333333 16.2963 0.740741L 16.2963 1.85185L 18.5185 1.85185C 19.3333 1.85185 20 2.51852 20 3.33333ZM 0 17.4074C 0 18.2222 0.666667 18.8889 1.48148 18.8889L 18.5185 18.8889C 19.3333 18.8889 20 18.2222 20 17.4074L 20 7.03704L 0 7.03704L 0 17.4074Z"/>
</defs>
</svg>
