<?xml version="1.0" encoding="UTF-8"?>
<svg width="64px" height="62px" viewBox="0 0 64 62" version="1.1" xmlns="http://www.w3.org/2000/svg" xmlns:xlink="http://www.w3.org/1999/xlink">
    <!-- Generator: Sketch 46.2 (44496) - http://www.bohemiancoding.com/sketch -->
    <title>cloudberry_hover</title>
    <desc>Created with Sketch.</desc>
    <defs></defs>
    <g id="Page-1" stroke="none" stroke-width="1" fill="none" fill-rule="evenodd">
        <g id="cloudberry_hover" fill-rule="nonzero" fill="#F05F40">
            <path d="M51.9,29.6 C55.8,35.2 54.4,43 48.7,46.9 C43,50.8 35.3,49.5 31.4,43.8 C27.5,38.2 28.9,30.5 34.6,26.5 C40.3,22.6 48,23.9 51.9,29.6 Z M27.3,32.4 C25.2,39.9 28.8,47 35.3,50.2 C33.3,54.7 26.8,58.5 20.1,56.1 C13.7,53.8 10.4,46.8 12.7,40.3 C15,33.9 22.1,30.9 27.3,32.4 Z M14.9,33.1 C11.7,29.9 10.4,26.1 11.3,21.6 C12.4,15.7 17.8,11.4 23.8,11.5 C29.8,11.6 34.8,16 35.8,21.8 C35.9,22.6 35.8,23 35,23.4 C32.4,24.7 30.3,26.6 28.9,29.1 C28.5,29.8 28.2,30 27.4,29.8 C23.1,29 19.1,29.9 15.6,32.6 C15.3,32.8 15.1,32.9 14.9,33.1 Z M49.6,24.1 C46,22 42.3,21.4 38.3,22.3 C37.7,17.9 35.6,14.4 32,11.8 C34.7,8.7 40.7,7.1 45.7,10.3 C50.3,13.1 52,19.2 49.6,24.1 Z M13.1,34.8 C10.2,39 9.8,40.3 9.5,45.6 C5.9,45.5 0.9,41.9 0.3,36.1 C-0.3,29.8 4.2,25.1 8.6,24.2 C8.6,28.4 10.2,31.9 13.1,34.8 Z M52.4,14.7 C57.2,14.1 62.3,17.9 63.5,23 C64.8,28.4 61.7,34.2 56.7,35.8 C56.2,34.1 55.9,32.2 55.2,30.6 C54.4,28.9 53.1,27.5 52.1,25.9 C51.9,25.6 51.7,25.2 51.8,24.9 C53.2,21.6 53.5,18.2 52.3,14.8 C52.4,14.9 52.4,14.8 52.4,14.7 Z M50,55.5 C50.8,53.3 51.1,51.1 50.9,48.9 C50.9,48.6 51.1,48.2 51.3,48 C53.9,45.7 55.6,42.8 56.3,39.4 C56.4,39.1 56.7,38.7 57,38.6 C57.7,38.2 58.5,38 59.2,37.5 C59.9,37.1 60.3,37.2 60.7,37.8 C64.1,42.1 63.7,48.8 59.6,52.6 C57,55 53.8,56 50,55.5 Z M2.8,24 C0.4,20.9 1.3,14.6 4.7,11.2 C8.5,7.4 14.7,6.7 18.9,9.8 C18.4,10 17.9,10.2 17.5,10.5 C13,12.6 10.2,16.1 9,20.9 C8.9,21.2 8.7,21.6 8.5,21.7 C6.6,22.5 4.7,23.2 2.8,24 Z M29.7,58.3 C33.3,56.8 36,54.4 37.8,51 C41.5,51.9 45,51.5 48.5,49.8 C49.2,53.8 46.1,58.8 41.9,60.6 C37.6,62.5 31.9,61.4 29.7,58.3 Z M38.6,6 C38.4,6 38.2,6.1 38,6.1 C34.9,6.5 32.2,7.8 30,10 C29.8,10.2 29.3,10.3 29.1,10.2 C27,9.4 24.8,9 22.5,9.2 C22.3,9.2 22,9.2 21.8,9 C20.9,8.3 20,7.6 19.1,6.9 C20.2,3.5 24.5,0.6 28.8,0.4 C32.9,0.3 37.3,2.8 38.6,6 Z M39.6,2.8 C43.3,1.2 47,1.3 50.4,3.5 C53.6,5.5 55.2,8.6 55.4,12.3 C54,12.3 52.8,12.3 51.5,12.2 C51.3,12.2 51,12 50.8,11.8 C48.6,8.8 45.7,6.9 42.1,6.2 C41.8,6.2 41.5,6 41.4,5.8 C40.8,4.9 40.3,3.9 39.6,2.8 Z" id="Combined-Shape"></path>
        </g>
    </g>
</svg>