<svg width="20" height="20" viewBox="0 0 20 20" version="1.1" xmlns="http://www.w3.org/2000/svg" xmlns:xlink="http://www.w3.org/1999/xlink">
<title>Group</title>
<desc>Created using Figma</desc>
<g id="Canvas" transform="translate(-2036 107)">
<g id="Group">
<g id="Vector">
<use xlink:href="#path0_fill" transform="translate(2036 -107)"/>
</g>
</g>
</g>
<defs>
<path id="path0_fill" d="M 12.5013 20.0005L 12.3225 19.988C 11.6387 19.8905 11.165 19.2567 11.2612 18.573L 13.7612 1.07299C 13.8587 0.39049 14.4962 -0.0845101 15.1762 0.0129899C 15.86 0.11049 16.335 0.74299 16.2375 1.42674L 13.7375 18.9267C 13.6487 19.5517 13.1138 20.0005 12.5013 20.0005L 12.5013 20.0005ZM 5.00125 20.0005L 4.8225 19.988C 4.14 19.8905 3.665 19.2567 3.7625 18.573L 6.2625 1.07299C 6.36 0.38924 6.9875 -0.0857601 7.6775 0.0129899C 8.36 0.11049 8.835 0.74424 8.7375 1.42799L 6.2375 18.928C 6.1475 19.5517 5.61375 20.0005 5.00125 20.0005ZM 18.75 7.50049L 2.5 7.50049C 1.81 7.50049 1.25 6.94049 1.25 6.25049C 1.25 5.56049 1.81 5.00049 2.5 5.00049L 18.75 5.00049C 19.4412 5.00049 20 5.56049 20 6.25049C 20 6.94049 19.4412 7.50049 18.75 7.50049ZM 17.5 15.0005L 1.25 15.0005C 0.56 15.0005 0 14.4417 0 13.7505C 0 13.0592 0.56 12.5005 1.25 12.5005L 17.5 12.5005C 18.1912 12.5005 18.75 13.0592 18.75 13.7505C 18.75 14.4417 18.1912 15.0005 17.5 15.0005Z"/>
</defs>
</svg>
