<svg width="20" height="20" viewBox="0 0 20 20" version="1.1" xmlns="http://www.w3.org/2000/svg" xmlns:xlink="http://www.w3.org/1999/xlink">
<title>Group</title>
<desc>Created using Figma</desc>
<g id="Canvas" transform="translate(-2036 -295)">
<g id="Group">
<g id="Group">
<g id="Vector">
<use xlink:href="#path0_fill" transform="translate(2044.55 300.752)"/>
</g>
<g id="Vector">
<use xlink:href="#path1_fill" transform="translate(2036 295)"/>
</g>
</g>
</g>
</g>
<defs>
<path id="path0_fill" d="M 1.47069 2.94139C 2.28293 2.94139 2.94139 2.28293 2.94139 1.47069C 2.94139 0.658452 2.28293 0 1.47069 0C 0.658452 0 0 0.658452 0 1.47069C 0 2.28293 0.658452 2.94139 1.47069 2.94139Z"/>
<path id="path1_fill" fill-rule="evenodd" d="M 18.3333 -2.01844e-08L 1.66647 -2.01844e-08C 0.746061 -2.01844e-08 -8.88113e-08 0.746326 -8.88113e-08 1.66673L -8.88113e-08 20.0008L 3.99989 16.6673L 18.3333 16.6673C 19.2537 16.6673 20 15.9213 20 15.0006L 20 1.66673C 20 0.746326 19.2539 -2.01844e-08 18.3333 -2.01844e-08ZM 12.5465 9.03184L 10.0168 12.5582L 7.48522 9.02814L 7.4876 9.02814C 7.1233 8.51886 6.90662 7.89661 6.90662 7.22251C 6.90662 5.50472 8.29927 4.11207 10.0171 4.11207C 11.7349 4.11207 13.1275 5.50472 13.1275 7.22251C 13.1275 7.8982 12.9098 8.52177 12.5436 9.03184L 12.5465 9.03184L 12.5465 9.03184Z"/>
</defs>
</svg>
