<?xml version="1.0" encoding="UTF-8"?>
<svg width="37px" height="27px" viewBox="0 0 37 27" version="1.1" xmlns="http://www.w3.org/2000/svg" xmlns:xlink="http://www.w3.org/1999/xlink">
    <!-- Generator: Sketch 46.2 (44496) - http://www.bohemiancoding.com/sketch -->
    <title>icon-info_hover</title>
    <desc>Created with Sketch.</desc>
    <defs></defs>
    <g id="Page-1" stroke="none" stroke-width="1" fill="none" fill-rule="evenodd">
        <g id="icon-info_hover" fill-rule="nonzero" fill="#F05F40">
            <path d="M0.31,2 C0.31,0.895431 1.205431,0 2.31,0 L21.31,0 C22.4146,0 23.31,0.895431 23.31,2 L23.31,3 C23.31,4.10457 22.4146,5 21.31,5 L2.31,5 C1.205431,5 0.31,4.10457 0.31,3 L0.31,2 Z M0.31,13 C0.31,11.895431 1.205431,11 2.31,11 L34.31,11 C35.4146,11 36.31,11.895431 36.31,13 L36.31,14 C36.31,15.10457 35.4146,16 34.31,16 L2.31,16 C1.205431,16 0.31,15.10457 0.31,14 L0.31,13 Z M0.31,24 C0.31,22.895431 1.205431,22 2.31,22 L28.31,22 C29.4146,22 30.31,22.895431 30.31,24 L30.31,25 C30.31,26.10457 29.4146,27 28.31,27 L2.31,27 C1.205431,27 0.31,26.10457 0.31,25 L0.31,24 Z" id="Combined-Shape"></path>
        </g>
    </g>
</svg>