<svg width="20" height="15" viewBox="0 0 20 15" version="1.1" xmlns="http://www.w3.org/2000/svg" xmlns:xlink="http://www.w3.org/1999/xlink">
<title>noun_916023_cc</title>
<desc>Created using Figma</desc>
<g id="Canvas" transform="translate(-2036 -43)">
<g id="noun_916023_cc">
<g id="Vector">
<use xlink:href="#path0_fill" transform="translate(2048.68 46.7924)"/>
</g>
<g id="Vector">
<use xlink:href="#path1_fill" transform="translate(2036 43)"/>
</g>
<g id="Vector">
<use xlink:href="#path2_fill" transform="translate(2039.75 43)"/>
</g>
</g>
</g>
<defs>
<path id="path0_fill" d="M 1.654 4.20464e-07C 0.740222 4.20464e-07 -1.89887e-07 0.734444 -1.89887e-07 1.64178C -1.89887e-07 2.54889 0.740222 3.28356 1.654 3.28356C 2.568 3.28356 3.30844 2.54867 3.30844 1.64178C 3.30844 0.734444 2.568 4.20464e-07 1.654 4.20464e-07Z"/>
<path id="path1_fill" d="M 2.5 0L 1.73467 0C 0.776889 0 0 0.769334 0 1.718L 0 13.1707C 0 14.1193 0.776889 14.8887 1.73467 14.8887L 2.5 14.8887L 2.5 0Z"/>
<path id="path2_fill" d="M 14.5147 0L 0 0L 0 14.8889L 14.5147 14.8889C 15.4731 14.8889 16.25 14.1196 16.25 13.1709L 16.25 1.718C 16.25 0.769334 15.4731 0 14.5147 0ZM 12.1753 12.408L 8.99778 12.408C 8.65267 12.408 8.37267 12.13 8.37267 11.7876C 8.37267 11.4453 8.65267 11.1671 8.99778 11.1671L 12.1753 11.1671C 12.5204 11.1671 12.8004 11.4451 12.8004 11.7876C 12.8004 12.13 12.5204 12.408 12.1753 12.408ZM 10.586 9.15644C 8.51511 9.15644 6.83667 7.48978 6.83667 5.43422C 6.83667 3.37822 8.51511 1.712 10.586 1.712C 12.658 1.712 14.3367 3.37822 14.3367 5.43422C 14.3367 7.49 12.658 9.15644 10.586 9.15644Z"/>
</defs>
</svg>
