<svg width="20" height="26" viewBox="0 0 20 26" version="1.1" xmlns="http://www.w3.org/2000/svg" xmlns:xlink="http://www.w3.org/1999/xlink">
<title>noun_559225_cc</title>
<desc>Created using Figma</desc>
<g id="Canvas" transform="translate(-2037 -233)">
<g id="noun_559225_cc">
<g id="Vector">
<use xlink:href="#path0_fill" transform="translate(2037 238.814)"/>
</g>
<g id="Vector">
<use xlink:href="#path1_fill" transform="translate(2041.27 233)"/>
</g>
</g>
</g>
<defs>
<path id="path0_fill" d="M 20 6.97813C 20 5.90158 19.1474 5.02997 18.0818 4.98623C 18.7776 4.20089 18.7574 3.00324 18.0057 2.25111C 17.2693 1.51478 16.1073 1.48157 15.3216 2.13325C 15.294 1.661 15.1077 1.19603 14.7469 0.835157C 13.966 0.0542737 12.6995 0.0542737 11.9182 0.835157C 11.853 0.900365 11.8011 0.973268 11.7469 1.04496C 11.407 0.425273 10.7566 5.56213e-07 10 5.56213e-07C 9.24342 5.56213e-07 8.59295 0.425273 8.25314 1.04496C 8.19887 0.973673 8.14702 0.900365 8.08181 0.835157C 7.30093 0.0542737 6.03443 0.0542737 5.25314 0.835157C 4.89226 1.19603 4.70595 1.661 4.67841 2.13325C 3.89267 1.48157 2.73026 1.51519 1.99433 2.25111C 1.2422 3.00324 1.22195 4.20048 1.91819 4.98623C 0.852167 5.02997 3.33728e-07 5.90158 3.33728e-07 6.97813C 3.33728e-07 7.66991 0.351559 8.27947 0.885783 8.63872C 0.55164 8.99635 0.343459 9.47266 0.343459 10.0004C 0.343459 10.8967 0.937222 11.6464 1.7501 11.9008C 1.58526 12.1916 1.4836 12.5229 1.4836 12.8809C 1.4836 13.8117 2.12232 14.5869 2.98339 14.81C 2.88173 15.4249 3.06359 16.0774 3.53787 16.5516C 3.98461 16.9984 4.58971 17.1806 5.17254 17.1162C 5.16727 17.6351 5.36047 18.1555 5.75618 18.5516C 6.41839 19.2138 7.42689 19.3082 8.19522 18.8477C 8.51478 19.5273 9.20048 20.0008 10.0008 20.0008C 10.8011 20.0008 11.4868 19.5273 11.8064 18.8477C 12.5747 19.3082 13.5832 19.2138 14.2454 18.5516C 14.6416 18.1555 14.8348 17.6351 14.8291 17.1162C 15.4119 17.1806 16.0166 16.9984 16.4637 16.5516C 16.938 16.0774 17.1199 15.4249 17.0182 14.81C 17.8793 14.5869 18.518 13.8117 18.518 12.8809C 18.518 12.5229 18.4164 12.1916 18.2515 11.9008C 19.0644 11.6468 19.6582 10.8971 19.6582 10.0004C 19.6582 9.47266 19.4496 8.99595 19.1158 8.63872C 19.6484 8.27947 20 7.67031 20 6.97813Z"/>
<path id="path1_fill" d="M 2.39898 4.84893C 2.91822 4.84893 3.41882 4.97124 3.86759 5.20211C 4.40303 4.81693 5.05228 4.59943 5.7315 4.59943C 6.41072 4.59943 7.05998 4.81693 7.59542 5.20211C 8.04418 4.97124 8.54479 4.84893 9.06403 4.84893C 9.72097 4.84893 10.3467 5.04577 10.8769 5.40948C 11.5424 3.95626 11.4593 2.37222 11.4593 2.37222C 11.4593 2.37222 9.28233 2.25597 7.691 3.36897C 7.35321 1.45727 5.7315 1.91585e-07 5.7315 1.91585e-07C 5.7315 1.91585e-07 4.10979 1.45727 3.7716 3.36938C 2.18067 2.25638 0.00327219 2.37262 0.00327219 2.37262C 0.00327219 2.37262 -0.0793524 3.95666 0.585694 5.40988C 1.11627 5.04617 1.74203 4.84893 2.39898 4.84893Z"/>
</defs>
</svg>
